<?xml version="1.0" standalone="no"?>
<!DOCTYPE svg PUBLIC "-//W3C//DTD SVG 20010904//EN"
 "http://www.w3.org/TR/2001/REC-SVG-20010904/DTD/svg10.dtd">
<svg version="1.0" xmlns="http://www.w3.org/2000/svg"
 width="512.000000pt" height="512.000000pt" viewBox="0 0 512.000000 512.000000"
 preserveAspectRatio="xMidYMid meet">

<g transform="translate(0.000000,512.000000) scale(0.100000,-0.100000)"
fill="#fa1919" stroke="none">
<path d="M1160 5116 c0 -2 25 -23 56 -47 50 -39 154 -153 154 -170 0 -4 -24
-10 -52 -14 l-53 -7 36 -12 c98 -34 116 -58 118 -151 2 -78 -24 -156 -89 -279
-66 -124 -108 -244 -136 -386 -26 -134 -24 -467 3 -629 l20 -114 -23 -106
c-66 -301 -88 -517 -81 -784 5 -221 24 -344 77 -507 98 -299 293 -541 600
-743 97 -64 513 -277 540 -277 17 0 4 -46 -25 -91 -13 -20 -42 -45 -64 -56
-37 -19 -44 -19 -93 -6 -138 37 -294 -35 -348 -159 -25 -58 -29 -145 -10 -202
14 -45 26 -46 34 -3 9 44 53 137 79 165 39 42 86 58 154 54 21 -2 22 -3 6 -47
-17 -52 -14 -171 6 -220 l12 -30 23 47 c51 105 116 158 196 158 l42 0 -9 -33
c-12 -47 -8 -215 6 -266 l13 -44 42 78 c53 97 132 186 189 214 121 59 270 -11
412 -193 33 -42 63 -76 66 -76 12 0 30 91 30 161 1 108 -43 170 -155 219 -34
14 -46 25 -46 40 l0 22 38 -23 c178 -108 304 -220 392 -349 52 -76 175 -191
240 -223 62 -31 100 -34 139 -11 46 27 68 73 111 229 88 319 140 571 176 845
21 170 30 583 15 736 -59 588 -244 1027 -610 1444 l-40 45 25 90 c71 264 70
537 -1 753 -33 99 -103 237 -156 307 -53 70 -79 154 -79 256 l0 79 41 29 c22
16 55 33 72 37 28 6 30 8 12 15 -11 4 -35 8 -53 8 l-33 1 30 44 c17 24 65 76
108 116 43 39 71 69 63 66 -8 -2 -46 -14 -85 -26 -165 -52 -297 -152 -360
-272 l-30 -57 -60 34 c-87 48 -204 92 -324 123 -92 22 -128 26 -266 26 -224 1
-374 -33 -542 -125 l-72 -39 -22 42 c-37 72 -154 180 -239 221 -64 31 -220 82
-220 73z m1645 -557 c91 -17 171 -62 250 -143 145 -147 204 -316 192 -555 -8
-175 -52 -284 -165 -419 -165 -195 -503 -325 -807 -309 -340 18 -651 146 -785
323 -82 108 -117 214 -127 375 -12 209 36 393 145 551 156 226 410 238 620 28
38 -38 92 -102 118 -141 41 -60 50 -68 59 -54 140 234 255 327 436 354 3 1 32
-4 64 -10z m-99 -1653 c-57 -229 -15 -485 128 -782 74 -153 138 -257 371 -604
95 -140 195 -294 224 -343 74 -123 174 -335 212 -447 27 -81 73 -271 66 -276
-1 -1 -23 -4 -48 -8 l-46 -7 -17 88 c-35 182 -136 429 -257 630 -29 49 -141
221 -249 383 -238 356 -239 358 -310 490 -134 249 -190 441 -190 649 0 93 11
197 25 239 3 7 23 12 51 12 44 0 46 -1 40 -24z m-53 -2163 c31 -14 57 -29 57
-34 0 -4 -16 -21 -35 -37 -63 -51 -135 -61 -170 -22 -22 25 -36 87 -28 132 l5
37 57 -26 c31 -14 82 -36 114 -50z"/>
<path d="M1735 4017 c-49 -20 -108 -55 -144 -86 l-34 -30 18 -43 c29 -68 90
-143 132 -164 60 -30 144 -25 223 12 36 18 84 46 108 63 l42 31 -22 41 c-35
63 -114 145 -161 168 -48 23 -115 26 -162 8z"/>
<path d="M2685 4006 c-41 -16 -148 -118 -174 -168 -13 -25 -12 -29 19 -65 44
-51 130 -109 173 -116 49 -8 112 9 162 43 50 34 155 147 155 167 0 17 -103 97
-159 124 -58 27 -126 33 -176 15z"/>
<path d="M2268 3681 c-53 -26 -70 -71 -65 -171 5 -93 28 -170 75 -252 l30 -51
25 44 c64 110 98 310 64 375 -32 61 -77 81 -129 55z"/>
</g>
</svg>
